<svg id="Layer_1" data-name="Layer 1" xmlns="http://www.w3.org/2000/svg" viewBox="0 0 247.32 170.89"><defs><style>.cls-1{fill:#fefefe;}.cls-2{fill:#fe7f00;}.cls-3{fill:#fe7e00;}.cls-4{fill:#fe7f01;}.cls-5{fill:#fe7f02;}.cls-6{fill:#fe8002;}.cls-7{fill:#fe8003;}.cls-8{fill:#fe8104;}.cls-9{fill:#fe8004;}.cls-10{fill:#fe8105;}.cls-11{fill:#fe8207;}.cls-12{fill:#fe8308;}.cls-13{fill:#fe8106;}.cls-14{fill:#fe8206;}.cls-15{fill:#fe8208;}.cls-16{fill:#fe8309;}.cls-17{fill:#fe850d;}.cls-18{fill:#fe840b;}.cls-19{fill:#fe840c;}.cls-20{fill:#fe840a;}.cls-21{fill:#fe850c;}.cls-22{fill:#fe8610;}.cls-23{fill:#fe860e;}.cls-24{fill:#fef6ee;}.cls-25{fill:#fe9125;}.cls-26{fill:#fe8813;}.cls-27{fill:#fe860f;}.cls-28{fill:#fed5ad;}.cls-29{fill:#fe9124;}.cls-30{fill:#fee1c5;}.cls-31{fill:#fedebe;}.cls-32{fill:#feb66e;}.cls-33{fill:#feaf61;}.cls-34{fill:#feab58;}.cls-35{fill:#feb063;}.cls-36{fill:#fea64e;}.cls-37{fill:#fedebf;}.cls-38{fill:#feeede;}.cls-39{fill:#fead5e;}.cls-40{fill:#fecfa0;}.cls-41{fill:#feaf60;}.cls-42{fill:#feb974;}.cls-43{fill:#fefdfd;}.cls-44{fill:#fea64f;}.cls-45{fill:#fee2c6;}.cls-46{fill:#fedebd;}.cls-47{fill:#fefbf9;}.cls-48{fill:#fefdfc;}.cls-49{fill:#fefdfb;}.cls-50{fill:#fed0a3;}.cls-51{fill:#feeedf;}.cls-52{fill:#fef3e8;}.cls-53{fill:#fef8f2;}.cls-54{fill:#fefbf8;}.cls-55{fill:#fef7ef;}.cls-56{font-size:24px;fill:#ff7f00;font-family:BrushScriptMT, Brush Script MT;}.cls-57{letter-spacing:-0.01em;}</style></defs><path class="cls-1" d="M101.16,167.6q0-14.88,0-29.77c0-.56.11-.67.67-.67q33.51,0,67,0c.55,0,.66.11.66.67q0,47.76,0,95.5c0,.56-.11.67-.66.67q-33.51,0-67,0c-.56,0-.67-.11-.67-.67q0-32.7,0-65.4c1.52.23,2.42-.88,3.39-1.69a27.11,27.11,0,0,0,3-3.06,13.75,13.75,0,0,1,3.31-2.81,1.06,1.06,0,0,1,.84-.2.79.79,0,0,1,.39.26c.08.54-.32.84-.65,1.14-1.84,1.64-3.59,3.37-5.28,5.16a38.83,38.83,0,0,0-3.73,4.17,3.11,3.11,0,0,0-.73,1.55c.45-1,1.49-1.09,2.29-1.53.28-.2.2-.53.27-.8a6.71,6.71,0,0,1,2.66-3.08c.27-.2.68-.4.94,0a.66.66,0,0,1-.3,1,3.49,3.49,0,0,0-1.65,2.39,5,5,0,0,1-1.36,2.09,13.62,13.62,0,0,0-2.57,4.67c-.13.35-.35.94.11,1.07s.57-.48.65-.87a10.37,10.37,0,0,1,1.74-3.62,67.69,67.69,0,0,1,4.26-5.85,27.92,27.92,0,0,1,7.25-6.09c1.27-.76,2.53-1.57,3.81-2.32a24.72,24.72,0,0,1,3.53-1.67c.9-.34,1.49-.21,1.66.27s-.3,1-1.13,1.26a19.53,19.53,0,0,0-5.78,3.09,7.43,7.43,0,0,1-2.51,1.45,1,1,0,0,0-.49.29c-1.14,1.19-2.42,2.25-3.52,3.48-.5.55-1.08,1-1.61,1.49a41.06,41.06,0,0,0-3.54,3.92,2.26,2.26,0,0,0-.59,1.31c0,.54-.47.9-.69,1.36-.11.22-.26.5,0,.67s.47-.06.6-.25c.46-.66.93-.85,1.59-.24.34.31.6,0,.77-.29a21.59,21.59,0,0,0,.94-2.21,9.23,9.23,0,0,1-.87,1.35c-.19.25-.39.62-.76.46s-.24-.53-.19-.82a6.43,6.43,0,0,1,.87-2.51,16.86,16.86,0,0,1,2.62-3,40.18,40.18,0,0,1,4.36-3.78,45.06,45.06,0,0,1,8.25-5.15,24.16,24.16,0,0,1,2.3-.81c.53-.17.68-.41.21-.84a.84.84,0,0,1,0-1.29,1.07,1.07,0,0,1,1.45-.28c.45.27.75.71,1.18,1,.67.45,1,.38,1.26-.38a1.82,1.82,0,0,1,1.51-1.09,14.35,14.35,0,0,1,4.53-.19,1.79,1.79,0,0,0,1.46-.31c.17-.14.35-.31.27-.54s-.35-.22-.57-.19c-1.23.16-2.46.38-3.69.6a5.08,5.08,0,0,1-1.29.11c-.3,0-.62,0-.72-.4a.84.84,0,0,1,.33-.94,2,2,0,0,1,.74-.32,1.07,1.07,0,0,0,.75-.43c.34-.64.82-.65,1.45-.48a44.55,44.55,0,0,0,5.13.83,49.13,49.13,0,0,1,11.7,3.31A35.22,35.22,0,0,1,158,161a5.26,5.26,0,0,0,1.08.56c.95.37,1.21.3,1.78-.5.46-.64.42-1.05-.21-1.73a6.77,6.77,0,0,0-2.72-2c-.34-.12-.68-.27-.62-.73a.92.92,0,0,1,.76-.75c.29-.09.59.07,1.08-.14a21,21,0,0,0-6.22-3.2,13.71,13.71,0,0,0,2.79,1.64,5.49,5.49,0,0,1,1.3.82c.24.23.48.49.31.85s-.47.32-.77.3a3.65,3.65,0,0,1-1.42-.34,13.31,13.31,0,0,0-3.57-1.31,1,1,0,0,1-.76-.44,2,2,0,0,0-1.47-.89c-3.35-.66-6.68-1.43-10.07-1.88a4.86,4.86,0,0,0-1.1,0,79,79,0,0,1,13.37,3.93,75.15,75.15,0,0,1,7.53,3.45,3.69,3.69,0,0,1,1.59,1.22c.2.32.42.69.12,1s-.65.22-1,.09a14.28,14.28,0,0,1-2.07-.94c-1.9-1.1-3.71-2.34-5.72-3.26a24.35,24.35,0,0,0-3.73-1.4,92.23,92.23,0,0,0-10.82-2.22,40.57,40.57,0,0,0-7.05-.48,4.36,4.36,0,0,0-.72,0,.61.61,0,0,0-.43.29,13.73,13.73,0,0,0,2.16-.12c.35,0,.88-.3,1,.19s-.48.65-.88.77c-1.06.31-2.15.56-3.24.77a22.8,22.8,0,0,0-4.12,1.26c-.3.12-.65.23-.76.56a2.62,2.62,0,0,1-1.5,1.4,11.66,11.66,0,0,1-4.77,1.51,1.75,1.75,0,0,0-1.53,1,15.6,15.6,0,0,1-3.06,3.33,17.1,17.1,0,0,1-3.35,2.44c-.36.22-.83.54-1.18.15s0-.82.31-1.15a9.91,9.91,0,0,1,1.89-1.65,39.51,39.51,0,0,0,5.45-5.21,2.46,2.46,0,0,0,.37-.54.22.22,0,0,0,0-.27,2.18,2.18,0,0,0-1.22.8,1.78,1.78,0,0,1-2.12.54c-.49-.2-.88.07-1.28.32A24.08,24.08,0,0,0,108,162c-.78.71-1.51,1.48-2.25,2.24a40,40,0,0,1-3.54,3C101.89,167.44,101.59,167.74,101.16,167.6Z" transform="translate(-16.48 -137.16)"/><path class="cls-2" d="M111.73,160.31a3.87,3.87,0,0,0-2.06,1.14,38.77,38.77,0,0,0-3.84,3.85,21.3,21.3,0,0,1-3,2.49,1.36,1.36,0,0,1-1.7.14v-.33a19.31,19.31,0,0,0,3.68-2.86c1.47-1.28,2.84-2.68,4.22-4.06a20.67,20.67,0,0,1,2.43-1.87,1.14,1.14,0,0,1,1.49-.1c.45.31.88.09,1.26-.22l1.36-1.17c.25-.21.57-.28.78,0s0,.45-.21.68a37.69,37.69,0,0,1-5.41,5.38c-.57.48-1.22.88-1.77,1.4a5.74,5.74,0,0,0-.7.78c-.15.2-.43.45-.17.71s.46,0,.67-.12a20.49,20.49,0,0,0,3.06-2.1c1.14-1,2.5-1.9,3.18-3.23s1.83-1.66,3.19-1.82a12.33,12.33,0,0,0,4.41-1.77c.16-.09.37-.24.4-.39.14-1,1-1.08,1.62-1.36a50.22,50.22,0,0,1,6.51-1.7,2.94,2.94,0,0,0,1.37-.65,6.42,6.42,0,0,0-2,.07c-.4,0-.8.1-1.21.11-.19,0-.48.08-.51-.24s.2-.37.41-.44a7.72,7.72,0,0,1,2.58-.18,79.51,79.51,0,0,1,13.8,2,32.86,32.86,0,0,1,11.13,4.72,13.52,13.52,0,0,0,3.18,1.59c.25.08.54.26.75,0s0-.57-.16-.81a4.07,4.07,0,0,0-1.66-1.26,80.52,80.52,0,0,0-11.65-4.92c-2.78-1-5.68-1.56-8.54-2.27a3.66,3.66,0,0,1-1-.41,8.87,8.87,0,0,1,3.21.17c2.87.53,5.74,1.12,8.6,1.69.62.12,1.24.21,1.44,1a.55.55,0,0,0,.53.33,12.55,12.55,0,0,1,3.66,1.28,4.3,4.3,0,0,0,1.72.41.42.42,0,0,0,.42-.2c.08-.18,0-.31-.16-.43a4.66,4.66,0,0,0-1.46-1,18.6,18.6,0,0,1-3.43-2,1.69,1.69,0,0,1,1.23.09,26.51,26.51,0,0,1,5.36,2.66,1.9,1.9,0,0,1,.41.39.39.39,0,0,1,.11.45c-.11.2-.28.19-.49.14A1.43,1.43,0,0,0,158,156a.76.76,0,0,0-.55.64c0,.36.26.36.48.43a7.05,7.05,0,0,1,3.12,2.37c.6.69.53,1-.15,1.93a1.24,1.24,0,0,1-1.69.47c-1.55-.67-2.81-1.82-4.3-2.58a49.29,49.29,0,0,0-16.47-5.21,23.47,23.47,0,0,1-4.55-.81c-.31-.1-.55-.07-.63.27-.12.56-.51.7-1,.77a2.06,2.06,0,0,0-.76.25.58.58,0,0,0-.24.71c.06.34.33.32.57.31,1.3-.07,2.57-.4,3.85-.58.51-.07,1-.16,1.53-.18s.69.33.41.79a1.63,1.63,0,0,1-1.7.71,16.78,16.78,0,0,0-4.13.05c-.92.15-1.93.2-2.06,1.52-.05.51-.51.55-1,.36a5.15,5.15,0,0,1-1.45-1.14c-.28-.27-.58-.49-1-.29a.82.82,0,0,0-.21,1.5c.61.54.61.75-.12.94-3.47.92-6.35,2.92-9.26,4.92a51,51,0,0,0-7.69,6.69,7.1,7.1,0,0,0-1.67,3.46.94.94,0,0,0,.09.85c.77-.55,1-1.52,1.81-2.3a8.71,8.71,0,0,1-1.32,3.27c-.31.46-.61.22-.83-.1-.42-.56-.74-.47-1.12.06-.26.36-.58,1-1.12.61s-.11-.92.19-1.29c.44-.54.41-1.28.74-1.77a26.84,26.84,0,0,1,4.55-5.15c1.22-1.11,2.35-2.33,3.53-3.48a4.92,4.92,0,0,1,2.41-1.65c.64-.12,1.07-.7,1.6-1.07a18.72,18.72,0,0,1,6.21-3.24,1,1,0,0,0,.6-.4c.14-.2.28-.42.11-.67a.57.57,0,0,0-.64-.22,7.08,7.08,0,0,0-2.2.8,57.88,57.88,0,0,0-9.54,6,38.54,38.54,0,0,0-7.74,9.22,9.76,9.76,0,0,0-1.82,4,.66.66,0,0,1-.12.3c-.19.29-.35.7-.78.58s-.36-.56-.32-.9a10.61,10.61,0,0,1,1.21-3.17,14.81,14.81,0,0,1,2.21-3.06,3.69,3.69,0,0,0,.82-1.83,2.5,2.5,0,0,1,1.3-1.67c.33-.23.87-.51.6-.91s-.74,0-1,.25a7.08,7.08,0,0,0-2.36,2.84c-.23.24-.07.61-.28.86a.48.48,0,0,1-.36.3c-.73.11-1.44.22-1.65,1.14a.47.47,0,0,1-.68.25c-.24-.15,0-.41,0-.59A13.69,13.69,0,0,1,104,168.7c1.4-1.5,2.89-2.92,4.28-4.42,1.11-1.19,2.47-2.1,3.5-3.36.12-.15.22-.31.33-.46a1.72,1.72,0,0,1,.23-.52c.07-.14.16-.29,0-.45a.12.12,0,0,0-.15,0c-.21.08-.13.25-.11.4C112.15,160.15,112.19,160.43,111.73,160.31Z" transform="translate(-16.48 -137.16)"/><path class="cls-3" d="M152.43,193.15c-.21.6.25.88.59,1.2s1,.92.57,1.39-.91-.36-1.31-.66a1.75,1.75,0,0,1-.66-1.18,19.13,19.13,0,0,0-1.77-5c-.64-1.48-1.33-2.93-1.85-4.49l2.38,3.25c.24-.22.1-.41.06-.55a12.33,12.33,0,0,0-1.77-4.07c-.44-.63-.76-.6-1.15.05a2.38,2.38,0,0,0-.26,1.65,20.26,20.26,0,0,0,1.45,4.13c.41,1,.91,1.91,1.34,2.87a8.35,8.35,0,0,1,.76,2.47,4,4,0,0,0,1.83,2.91,4.16,4.16,0,0,1,1.5,1.89,12,12,0,0,1,.85,5.33c0,.27,0,.68-.4.68s-.5-.33-.55-.62a10.15,10.15,0,0,1-.12-1.46,24.33,24.33,0,0,0-.21-2.83,3.56,3.56,0,0,0-2.11-2.85c-.19-.1-.42-.23-.6,0a.41.41,0,0,0,.1.58c1.22,1,1.16,2.42,1.32,3.78.32.46,0,1.05.28,1.51v1.46c-.29.41,0,1-.28,1.36a3.48,3.48,0,0,1-.19,1.36c-.1.4-.24.72-.74.69a.5.5,0,0,0-.58.45.56.56,0,0,0,.36.66c1,.27,1,1.05.94,1.82a27.5,27.5,0,0,1-1.23,5.37,18.05,18.05,0,0,1-2,5c1.2.29,1.61,1.29.81,2a26,26,0,0,1-7.14,4.71.69.69,0,0,1-.61.07c.09-.43.44-.7.67-1s.33-.66-.3-.71a3.21,3.21,0,0,1-2-1c-.27-.27-.3-.49,0-.74a13.63,13.63,0,0,1,3.41-2.15c.22-.1.48-.25.65,0a.62.62,0,0,1-.12.82,3.51,3.51,0,0,1-1.36.69,4.65,4.65,0,0,0-1.48.64.58.58,0,0,0-.27.7c.12.32.4.34.68.29a3.55,3.55,0,0,0,1.71-.88c.68-.55,1.33-1.12,2-1.67a3,3,0,0,1,.48-.31c.19-.1.46-.21.59,0s-.06.42-.23.6c-.82.9-1.81,1.62-2.7,2.45a.71.71,0,0,0-.19.48,16.39,16.39,0,0,0,4.85-3.54,5,5,0,0,1-.74-.09.73.73,0,0,1-.34-1.27c2.24-2.29,3-5.19,3.43-8.23.05-.44.15-1.08-.74-.75-.49.18-.43-.31-.4-.56.1-1.1.25-2.2.37-3.31.08-.78.12-1.56.2-2.35a3,3,0,0,1,.33-1.4c.12-.19.29-.36.54-.27a.46.46,0,0,1,.27.46,5.55,5.55,0,0,1-.17,1.28c-.06.34-.12.78.35.87s.48-.38.5-.66c.22-2.75.21-5.47-1.23-8a2.85,2.85,0,0,1-.46-1.21,22.33,22.33,0,0,0-1.62-5.84,39.39,39.39,0,0,0-1.83-4.51c-1.61-3.17-2.92-6.54-5.58-9.05a13.13,13.13,0,0,0-4.07-3,8.1,8.1,0,0,0-6.4.36,12.05,12.05,0,0,0-7.32,8.36,21.19,21.19,0,0,0,.76,13.47,26.1,26.1,0,0,0,3.62,5.92,4,4,0,0,0,4.36,1.76.86.86,0,0,1,.32,0c3,0,3-.94,4.17-3.65a1.41,1.41,0,0,0,.07-.85,2.72,2.72,0,0,0-1.42,1A15.17,15.17,0,0,1,133,203c-.39.25-.85.5-1.28.19s-.18-.76-.06-1.13c.22-.67,0-1-.68-1.15a4.82,4.82,0,0,1-2.08-1.21c-.33-.28-.88-.64-1.1-.35-.33.45.17.86.56,1.17.64.5,1.28,1,1.9,1.51.14.13.36.33.16.55s-.35,0-.52,0a7.65,7.65,0,0,1-3.95-4.9,1,1,0,0,1,.29-1.11.53.53,0,0,1,.68,0,1.09,1.09,0,0,1,.33,1.11,3.57,3.57,0,0,1-.11.47c-.11.37.06.56.4.47a2.89,2.89,0,0,1,2.64.88,4.61,4.61,0,0,0,4.55.49.83.83,0,0,0,.63-.7c.14-2.51,1-5,.81-7.49a11.78,11.78,0,0,0-1.52-5.43,5.22,5.22,0,0,0-2.19-2.3,1,1,0,0,0-.86-.1c-.33.19,0,.47,0,.71s0,.4-.17.5c-.86.36-.92,1.2-1.13,1.93s-.42,1.74-.65,2.6a3.24,3.24,0,0,1-.34.73.33.33,0,0,1-.47.18c-.19-.09-.18-.25-.11-.42.23-.56.09-.9-.44-1.27s-.36-1,0-1.49a2.3,2.3,0,0,0,.52-1.64.47.47,0,0,0-.4-.53.54.54,0,0,0-.6.31,2.19,2.19,0,0,0-.2.78,3.26,3.26,0,0,1-.26,1.19c-.12.22-.28.44-.56.38s-.28-.31-.29-.53c0-1.53,0-3,1.29-4.19a.63.63,0,0,0,.21-.42c.45-3.45,4.87-5.85,8-4.34.39.19.75.43,1.14.63s.72.36,1.1.52.54.25.74,0,0-.52-.16-.74c-1.2-2-2.65-2.52-5.26-2a9.45,9.45,0,0,0-6.64,4.47,5.94,5.94,0,0,1-1.36,1.71c-.12.1-.27.21-.43.07s0-.26,0-.37c.78-1.43,1.13-3.11,2.62-4.11,1.19-.8,2.24-1.8,3.42-2.6a6.24,6.24,0,0,1,6.16.3c1.51,1.22,3,2.5,4.45,3.77a6.25,6.25,0,0,1,1.24,1.6,81.34,81.34,0,0,1,3.79,7.59,10.2,10.2,0,0,1,.41,1.25,2.62,2.62,0,0,1-2-2,18.68,18.68,0,0,0-2.36-5.32,19.66,19.66,0,0,0-1.85-2.86c-.26-.31-.47-.69-1-.56a.89.89,0,0,0-.71.79c-.07.49,0,1,.48,1.2,1.84.73,2.45,2.44,3.27,4a32.76,32.76,0,0,1,2.41,6.11,3,3,0,0,0,.59,1.24.66.66,0,0,0,.78.26c.25-.12.15-.42.14-.66,0-.42-.48-1,.15-1.2s.71.56.91,1a21.15,21.15,0,0,1,1.24,4.7c.23,1,.45,1.95.67,2.93.05.22.18.53-.1.65s-.49-.16-.62-.38a7.41,7.41,0,0,1-.82-2.28,20.31,20.31,0,0,0-.78-3.07c-.1-.25-.21-.59-.51-.54s-.33.46-.3.73a11.9,11.9,0,0,0,1.2,3.95,10.79,10.79,0,0,1,1.31,3.81,4,4,0,0,1-.88,3.19,4.15,4.15,0,0,0-1.11,2.48c0,.77-.48,1-1.15.85l-.64-.11c-.36,0-.73-.08-.94.29a1.48,1.48,0,0,0-.08,1.18c.12.37.41.14.59,0,.36-.24.69-.53,1.05-.77.1-.07.3-.12.38-.06s.1.31,0,.44a1.85,1.85,0,0,1-1.46,1,2.68,2.68,0,0,0-2.2,1.34c-1.72,2.88-4.51,3.51-7.53,3.65a11.66,11.66,0,0,1-6.32-1.78,22.62,22.62,0,0,1-6.5-6,14.56,14.56,0,0,1-2.62-4.87.23.23,0,0,1,.33,0,3,3,0,0,1,1.19,1.29c1.08,1.58,2.12,3.18,3.24,4.73a12.6,12.6,0,0,0,9.68,5.19c.83.07,1.67.08,2.51.13a4.86,4.86,0,0,0,3.61-1.37,12.2,12.2,0,0,0,2.93-3.65l.11-.22c.14-.41.43-1,.06-1.21s-.66.34-.92.61c-1,1-1.73,2.19-2.78,3.15a5.45,5.45,0,0,1-3.6,1.44c-.68,0-1.36,0-2,0a7.17,7.17,0,0,1-4.62-1.47,26.38,26.38,0,0,1-7.06-7.3,7.11,7.11,0,0,1-1.09-1.57c-.09-.27-.3-.52-.17-.89a3.35,3.35,0,0,1,1.3.87,16.66,16.66,0,0,1,2.33,3.3,10.51,10.51,0,0,0,3.25,3.58c.59.43,1.06,1.23,2,1,0,0,.14.1.15.16.2.94,1,1.09,1.74,1.24a6,6,0,0,0,4.64-.36,2.32,2.32,0,0,1,2,0c.19.06.43.24.56,0s-.09-.4-.24-.55a2.31,2.31,0,0,0-3-.06.77.77,0,0,1-.64.26,11.18,11.18,0,0,1-7-3.27,2.29,2.29,0,0,1,1.27.43,8.7,8.7,0,0,0,5.31,1.08,5.13,5.13,0,0,0,2.28-1.17c.34-.26.65-.57.94.17s.69.15,1-.13a.79.79,0,0,0,.23-1c-.18-.32-.48-.07-.72,0-.45.13-.54-.12-.51-.47a1.06,1.06,0,0,1,.66-.94c.45-.18.71.14,1,.44a1.58,1.58,0,0,1,.37.88,1,1,0,0,1,0,1c-.1.6-.67,1.07-.46,1.78a2.23,2.23,0,0,0,1.42-1.12,12.68,12.68,0,0,1,1.32-1.85,2,2,0,0,1,1-.73c.59-.15,1.05-.35,1.18-1a.53.53,0,0,1,.71-.37.54.54,0,0,1,.33.67c0,.46-.16.91-.23,1.36a.58.58,0,0,0,.23.58c.23.14.38-.1.56-.21a2,2,0,0,0,.76-1.37,16.54,16.54,0,0,0,.2-7.88c-.16-.69-.24-1.38-1.35-1.12-.55.13-.54-.65-.57-1.06a17.39,17.39,0,0,0-.36-3.06,31.3,31.3,0,0,0-3.73-9.64,10.29,10.29,0,0,0-.66-.82c-.24-.12-.45-.2-.35.22,1.24,2.41,2.65,4.74,3.16,7.46a45.88,45.88,0,0,1,1,7.3,1.33,1.33,0,0,1-1.08,1.55,1.68,1.68,0,0,0-1.24,1.46,40.53,40.53,0,0,0-.28,4.12,4.86,4.86,0,0,1-.25,1.26c-.1.24-.22.56-.57.41s-.17-.4-.07-.62.11-.29.18-.46c-1.27.24-1.27.25-1-1,.08-.34.13-.69.2-1s.13-.48.14-.73a.65.65,0,0,1,.14-.43c.09-2.22.12-4.43,0-6.65a.89.89,0,0,1-.14-.57c0-.25.06-.53-.14-.76-.11-.58-.2-1.17-.32-1.75,0-.2-.08-.49-.37-.43s-.16.32-.16.49c0,.73,0,1.46.06,2.19a2.23,2.23,0,0,1-.13.72c-.05.16-.15.37-.38.34s-.26-.19-.31-.35a2.3,2.3,0,0,1-.14-.63c-.06-2.12-.44-4.2-.71-6.3a1,1,0,0,1,0-.24c0-.25-.14-.63.16-.72s.39.3.5.52c.24.49.44,1,.71,1.47a2,2,0,0,0,1.5,1.22c.72.07.93.55,1,1.16a22.72,22.72,0,0,1,.17,3.08,10.62,10.62,0,0,0,.32,2.25.92.92,0,0,0,.53.74,4.46,4.46,0,0,0,.19-2.07c-.18-3.09-.47-6.18-2.05-8.94a61.92,61.92,0,0,0-3.45-5.46,2.85,2.85,0,0,1-.65-1.21c.45-.24.88.3,1.32,0-.72-1.55-6.3-2.17-7.91-.83a4.92,4.92,0,0,0,1.68.18,7.33,7.33,0,0,1,5.23,3.05,19.19,19.19,0,0,1,2.65,4.18,13.53,13.53,0,0,1,1.21,2.25c.07.3.33.65-.06.85a.68.68,0,0,1-.89-.36c-.41-.7-.8-1.42-1.19-2.12-.14-.24-.27-.48-.41-.71-.29-.49-.59-.46-.92,0-.12.16-.22.47-.46.38s-.21-.43-.18-.65c.27-1.82-.72-3.16-1.72-4.48-1.39-1.83-3.49-1.61-5.09-1.12-.14,0-.37.12-.34.29.16,1-.59,1.69-1.06,2.51.41.17.69-.05,1-.16s.78-.37,1.17-.56c2.45-1.22,2.41-1,4.15,1.21s2.18,5.37,2.39,8.31a27.92,27.92,0,0,1,0,3.17c0,.54,0,1.19-.8,1.29-.23,0-.19.21-.12.37a1.26,1.26,0,0,0,1.77.58c1.27-.74,1.47-.63,1.61.89a5.55,5.55,0,0,1-.59,3.38c-.41-.76-.09-1.56-.37-2.26-.37.19-.43.52-.58.8-.49,1-1,1.92-1.47,2.89a2.37,2.37,0,0,1-1.56,1.32,18.49,18.49,0,0,1-4.95.8,1.41,1.41,0,0,1-1.3-.81,13.64,13.64,0,0,0-3.89-3.94c-.22-.14-.46-.05-.7-.15a3.08,3.08,0,0,0-.27-2.21c-.6-1.43-1.28-2.84-1.84-4.29a7.45,7.45,0,0,1-.3-1.84c-.29-2.75-.64-5.53.1-8.24,1-3.54,2.5-6.83,5.58-9.06a11.68,11.68,0,0,1,7.07-2.48,7.06,7.06,0,0,1,2.52.57,24.3,24.3,0,0,0,3.9,1.35c.26.06.57.12.69-.21s-.12-.33-.28-.43a15.12,15.12,0,0,0-10.32-2.28,8,8,0,0,0-3.35,1.71c-1.1.8-2.12,1.69-3.18,2.53a2.84,2.84,0,0,1-.56.33c-.17.08-.38.14-.52-.05s0-.32,0-.46a5.06,5.06,0,0,1,1.11-1.29,24.38,24.38,0,0,1,5.59-3.71c1.56-.79,3.23-.49,4.87-.42.9,0,1.79.06,2.68.13a2.75,2.75,0,0,0,2.69-1.13.81.81,0,0,1,1.2-.21c.5.27,1,.58,1.47.87a4.54,4.54,0,0,0,2.13.6,6.21,6.21,0,0,1,3.92,1.94.55.55,0,0,1,0,.86c-.35.31-.69.13-1-.12s-.26-.93-.83-.89-.7.49-1.05.73a1.11,1.11,0,0,0-.11,1.8c.95,1,1.87,2.09,2.82,3.12a18.21,18.21,0,0,1,3.1,5.21,54.15,54.15,0,0,1,2.93,9.48c.08.33.14.7.54.7s.51-.43.57-.77a2.84,2.84,0,0,0-.21-1.59c-.9-2-1.19-4.28-2.18-6.28a4,4,0,0,1-.26-.85c-.12-.53,0-.91.64-.82.93.14.85-.43.7-1-.25-.94-.56-1.87-.84-2.8a1.46,1.46,0,0,1-.17-.83,5.47,5.47,0,0,1,1.83,3.2,1.62,1.62,0,0,1-.36,1.53c-.72.63-.54,1.28-.25,2,.46,1.13,1,2.23,1.37,3.38a32.73,32.73,0,0,1,1.55,8,4.45,4.45,0,0,0,.32,1.34.51.51,0,0,0,.45.29c.27,0,.23-.24.25-.41a12.53,12.53,0,0,0-.28-4.36c-.58-3-1.75-5.83-2.58-8.75-.18-.61-.55-1.24.39-1.62.33-.13.18-.58.17-.9s-.21-.55-.06-1A35.74,35.74,0,0,1,163,194.05c-2.36-2.76-3.4-6.31-5.71-9.11a87.21,87.21,0,0,1,5.08,13.23c.11.13.29.24.18.39a4.17,4.17,0,0,0,0-1.21c.06-.4.1-.81.17-1.2,0-.16.1-.34.28-.36s.27.16.34.3a15.75,15.75,0,0,1,1,3.34,46.22,46.22,0,0,1,1.15,10.28,18.3,18.3,0,0,0,.23,2.09c.05.34.08.7.48.88a.5.5,0,0,1,.25.63.52.52,0,0,1-.58.35c-.64,0-1.29,0-1.94-.06-.47,0-.91.07-.94.65-.11,1.79-1.11,3.18-2,4.61a4.5,4.5,0,0,0-1,1.89,2.88,2.88,0,0,0,2.25-1.67,3.5,3.5,0,0,1,.77-1.23.52.52,0,0,1,.67-.06c.21.19.05.4-.06.58a15.07,15.07,0,0,1-2,2.56,57.51,57.51,0,0,1-6.88,6.17,1.12,1.12,0,0,1-.66.36c.55-.75,1.09-1.45,1.61-2.18.13-.18.32-.42.1-.65s-.4-.06-.61,0a2.74,2.74,0,0,1-.39.09c-.2,0-.43.23-.6,0s0-.41.11-.6a21.16,21.16,0,0,1,1.62-2.23c.32-.45.9-1.06.38-1.48s-.93.32-1.31.69-.49.54-.86.94a9.15,9.15,0,0,1,.77-2.12,28.12,28.12,0,0,0,2.42-6.7c.12-.83.19-1.66.26-2.5a6.73,6.73,0,0,1,.3-1.67c.08-.23.17-.53.45-.49s.21.33.25.54a2.62,2.62,0,0,1,0,1.81,19.94,19.94,0,0,1-1.84,7,1.8,1.8,0,0,0,.33,2.34c1.42,1.46,1.11,1.35-.12,2.4l-.3.27c-.29.27-.7.5-.56,1,.09.29.42.3.69.32a1,1,0,0,0,1.13-.61,4.47,4.47,0,0,0,.16-.63,1.46,1.46,0,0,1,.76-1c.88-.44.86-.48.06-1.05a.62.62,0,0,1,0-.81,14.65,14.65,0,0,1,1.51-2.4,3.82,3.82,0,0,0,.67-3.56c.33.15.45.46.66.68s.19.38.42.28.15-.33.15-.51c0-.62,0-1.22-.81-1.4-.32-.08-.56-.28-.49-.64s.37-.37.64-.4.48,0,.74,0a9,9,0,0,1-.7-4.19,16.89,16.89,0,0,1,.56-4.9,1.08,1.08,0,0,1,.74-.87,1,1,0,0,0,.66-1.16c0-.58-.42-.61-.91-.66-.69-.06-1-.67-1.3-1.22a15,15,0,0,0-1-1.82l.44,4.47-.19.12-1.37-2-.21.09a46.79,46.79,0,0,0,.57,6.81,13.86,13.86,0,0,0,.8-2.11,1.73,1.73,0,0,1,.2,1.08c-.05,2.92-.18,5.84-.45,8.76-.19,2-.73,3.83-2.72,4.83.36-1.08.65-2.25,1.13-3.33a15,15,0,0,0,.94-4.22,16.59,16.59,0,0,0,.12-2.11,2.69,2.69,0,0,0-.68-2c-.94-1-.83-2.42-.88-3.69a33.45,33.45,0,0,0-1.22-7.51,5.2,5.2,0,0,0-.59-1.42c-.09-.14-.18-.3-.37-.26s-.15.26-.16.4a4.64,4.64,0,0,0,.27,1.43,9.91,9.91,0,0,1,.46,4.08,4,4,0,0,1-.11.47c-.36,0-.36-.33-.42-.54a39.52,39.52,0,0,1-1.65-7.68,3.79,3.79,0,0,1,0-.89c.06-.41.06-.68-.44-.86s-.46-.65-.51-1c-.12-1-.2-2-.32-3a1.3,1.3,0,0,0-.48-.88,3.2,3.2,0,0,1-.86-1.44,22.85,22.85,0,0,0-5.35-8.21,26,26,0,0,0-3.71-3.63,5.26,5.26,0,0,0-1.93-.83c-.2,0-.48-.11-.58.13s.11.46.31.59c.68.48,1.4.91,2.07,1.41.5.38,1.1.7,1.09,1.5,0,.35.35.36.62.37a1.47,1.47,0,0,1,1.37.92,21.64,21.64,0,0,0,2.73,3.18,11.17,11.17,0,0,1,2.51,4.82c.58,2.45,1.33,4.86,1.75,7.34A.57.57,0,0,1,152.43,193.15Z" transform="translate(-16.48 -137.16)"/><path class="cls-2" d="M155.5,174a14.53,14.53,0,0,1,1.94,2.48c.14.25.39.59.16.82s-.52-.12-.74-.27a17.76,17.76,0,0,1-2.22-2,54.07,54.07,0,0,0-7.54-6.88,9.51,9.51,0,0,0-2.26-1.06c-1-.33-1.62-.06-1.92.68s-.09.93.61.92a5.43,5.43,0,0,1,2.84.42,18.43,18.43,0,0,1,5.54,4.82,1.41,1.41,0,0,1,.2.85,4.24,4.24,0,0,0,.57,2.15c0,.06,0,.16,0,.24.14.63.44,1.34-.16,1.81s-1.39.16-2-.29a10.31,10.31,0,0,1-2.51-2.95c-.13-.19-.34-.46-.14-.66s.51,0,.71.16c.48.31.92.66,1.44,1,.16-.5-.13-.84-.21-1.21s-.12-.76.53-.61c.33.08.79.48,1,.06s-.31-.64-.57-.89a18.36,18.36,0,0,0-5.15-3.89c-.51-.24-1-.44-1.14.39-.09.44-.47.26-.73.14-.66-.31-1.29-.7-2-1a23.64,23.64,0,0,0-5-1.13,3.59,3.59,0,0,1-1.41-.43c.36-.51.91-.46,1.4-.5a10.79,10.79,0,0,1,2.88.37,2.62,2.62,0,0,0,2.94-.83c.14-.18.41-.39.21-.62s-.51-.08-.73.08a1.21,1.21,0,0,0-.43.47.74.74,0,0,1-1.12.41,17,17,0,0,0-6.09-1.22c-.61-.05-1.18-.14-1.37-.88a.48.48,0,0,0-.61-.29c-.3.09-.32.36-.28.6.08.42.2.83.33,1.35a7.9,7.9,0,0,1-1.53-1.1,1.73,1.73,0,0,0-2.18,0c-.1.08-.24.15-.2.31s.21.15.33.16a3.35,3.35,0,0,1,2.07,1.19c.37.41.24.67-.23.84a6.94,6.94,0,0,1-.78.22,15.22,15.22,0,0,0-7.49,4.45,21.93,21.93,0,0,0-3.79,5.32c-.17.34-.51.84.26,1a.64.64,0,0,0,.8-.52,8.19,8.19,0,0,1,2.7-3.93,49.64,49.64,0,0,1,4.13-3.67,10.54,10.54,0,0,1,5.53-1.88,19.53,19.53,0,0,1,5.91.11l.47.11c.28.09.66.13.62.52s-.38.43-.67.5a4,4,0,0,1-1.86,0c-5.91-1.43-10.23,1.07-13.84,5.47a21.52,21.52,0,0,0-1.8,2.67,2,2,0,0,1-2.22,1.12c-.79-.16-1.18.38-1.47,1-.58,1.24-1.15,2.48-1.72,3.72a.51.51,0,0,1-.3.29,24,24,0,0,1,5-10.4c2.38-3.15,5.2-5.85,9.25-6.8-.2-.52-.47-.41-.69-.4a8.9,8.9,0,0,0-5.62,2.42,34.92,34.92,0,0,1-3.08,2.62c-.27.18-.61.38-.83,0a.62.62,0,0,1,.35-.93,1.8,1.8,0,0,1,.47-.12c.16,0,.32,0,.48-.09.48-.15.78-.43.58-1s-.62-.37-1-.2a5.63,5.63,0,0,0-2.49,2.7c-.16.34-.29.7-.48,1a1.46,1.46,0,0,1-1.18.87c-.72,0-.89-.18-.66-.85a6.49,6.49,0,0,1,1.63-2.08c.77-.9,1.61-1.75,2.42-2.63a2.85,2.85,0,0,0,.72-1.09,1.69,1.69,0,0,0-1.69.63,30.28,30.28,0,0,0-6.13,8.21c-.34.64-.64,1.31-1,1.95-.24.44-.43.95-.94,1.18a.46.46,0,0,1,0-.64c1-2.5,1.91-5,3.74-7.14a6.3,6.3,0,0,0,1.53-2.74,1.38,1.38,0,0,1,.7-.83c1.82-1.18,3.76-2.13,5.6-3.27.17-.07.19,0,.16.15a7.64,7.64,0,0,0-1.58,1.63c1.15.14,7.21-3.12,8.57-4.6-.08-.3-.45-.1-.58-.34.15-.33.52-.42.77-.65s.33-.17.27-.36-.24-.19-.4-.2a2.86,2.86,0,0,1-1.22-.29c.59-.29,1.18-.55,1.74-.87s1-.43,1-1.12c0-.34.26-.16.4-.13.63.16,1.25.43,1.54-.54.11-.36.64-.34,1-.36a25.42,25.42,0,0,1,3.9.12,20,20,0,0,0,2.59.06c-.3-.55-.86-.64-1.27-.94-.26-.19-.65-.34-.59-.7s.5-.33.8-.38a2,2,0,0,1,.73,0c.46.08,1.1,0,.66.89,2.38-.69,4.24.19,6,1.52a1.89,1.89,0,0,1,.54,1.07c.11.43,0,.64-.5.51-.73-.19-1.45-.4-2.18-.6a1.66,1.66,0,0,0-2,.48,1.53,1.53,0,0,1-1.66.37,26.52,26.52,0,0,0-9.85,0c-.59.09-.79.35-.74.91a4.12,4.12,0,0,0,.44,1.46c.39.79.36.91-.31,1.73.88,0,1.64,0,2.4,0s1.33,0,1.57.92c.17.67,2.45.86,2.88.31a.64.64,0,0,0,.08-.14c.37-1,.37-1,1.59-.74a51.35,51.35,0,0,1,6.91,2.3,11.36,11.36,0,0,1,2.48,1.2c.16.12.4.3.57.07s-.06-.47-.24-.59a12,12,0,0,0-1.83-1.2c-2-1-4.07-1.9-6.1-2.84.05-.39.3-.18.49-.16a16.26,16.26,0,0,1,5.66,2c2.73,1.28,4.77,3.43,7.3,4.94a4.54,4.54,0,0,0,1.55.8,3.56,3.56,0,0,0-1-1.3,24.94,24.94,0,0,0-4.71-3.82c-3.67-2.29-7.5-4.3-12-4.33a4,4,0,0,1-1.73-.41c-.19-.09-.4-.24-.32-.5s.28-.24.47-.26a7.63,7.63,0,0,1,2,.16,35.79,35.79,0,0,1,9.78,3.07,9.4,9.4,0,0,1,1.25.75,62.64,62.64,0,0,1,8.7,7.41,21.26,21.26,0,0,1,2.19,2.36c.13.17.25.35.37.53s.29.63,0,.81-.49-.14-.66-.33c-.82-.89-1.66-1.77-2.43-2.7a2,2,0,0,0-2.05-.82,2.17,2.17,0,0,1-1.68-.44,17.45,17.45,0,0,1-2.57-2,3.77,3.77,0,0,0-1.65-1.09,1.47,1.47,0,0,0,.5,1.07,18.11,18.11,0,0,0,2.55,2.48,2.76,2.76,0,0,1,1,1.27,1,1,0,0,0,1.23.77C155.14,173.44,155.57,173.46,155.5,174Z" transform="translate(-16.48 -137.16)"/><path class="cls-2" d="M134,145.62l-3.25,0a2.52,2.52,0,0,1-.73-.05c-.31-.07-.73,0-.86-.37s.43-.39.53-.7a5.76,5.76,0,0,0-1.38.09c-.19,0-.43,0-.49-.18a.54.54,0,0,1,.23-.39,5.9,5.9,0,0,1,3.64-1.14c.45,0,.74.2.7.77,0,.85.61.82,1.19.83s.68-.46.58-1c-.07-.3-.15-.6.21-.76a.84.84,0,0,1,.92.1,2.46,2.46,0,0,1,.6.76c.18.34.35.69.81.69a.46.46,0,0,0,.46-.28c.21-.49-.34-.6-.48-.92,2.1-.67,15.92,3.51,17.51,5.33a3.64,3.64,0,0,1-2.05-.19,33.64,33.64,0,0,1-4.14-1.41,35.71,35.71,0,0,0-5.89-1.79,7.73,7.73,0,0,0-5.38.92,23.73,23.73,0,0,1,6.84.7,32.42,32.42,0,0,1,7.37,2.46,10.41,10.41,0,0,0,3.31,1.05c.29,0,.65.11.57.52s-.41.42-.71.37a9.71,9.71,0,0,1-2.45-.83,4,4,0,0,0-1.47-.43,1.17,1.17,0,0,0-1,.38.68.68,0,0,0-.21.41c0,.24.26.21.45.23a2.66,2.66,0,0,1,1.51.51c.19.16.42.35.3.61s-.42.14-.64.08c-2-.57-4.09-1-6.17-1.43a64.2,64.2,0,0,0-15.29-.85c-1,.05-1.9,0-2.85.05-.29,0-.7,0-.81-.22s.28-.45.48-.66.54-.35.72-.73a7.81,7.81,0,0,0-1.7.14c-.47,0-1,.23-1.2-.55-.13-.44-.78-.37-1.24-.33a1.37,1.37,0,0,0-1.22.52.38.38,0,0,0,0,.46c.15.17.34.12.52,0,.51-.22.78-.11.73.5s.31.7.79.69c.17,0,.4-.06.46.19s-.09.36-.23.49a1.8,1.8,0,0,1-1.25.5c-.55,0-1,.17-1.16.8a.35.35,0,0,1-.48.31,2.38,2.38,0,0,0-2.18.58,10.68,10.68,0,0,1-3.73,1.88,2.55,2.55,0,0,0-1.5,1.19c-.12.17-.34.36-.14.56s.41,0,.6-.06c1.08-.55,2.17-1.08,3.25-1.64a19.35,19.35,0,0,1,2.6-1.34c.19-.06.41-.26.6-.06s0,.39-.14.56c-.27.51-.77.85-.52,1.63.19.58-1.29,1.66-2.13,1.69.26-.87,1.27-1.05,1.68-1.84a4.47,4.47,0,0,0-3.5,1c-.54.35-1,.83-1.52,1.22s-.84.37-1.17-.16-1-.6-1.52-.2a20.92,20.92,0,0,0-2.86,2.37c-1.24,1.29-2.48,2.59-3.78,3.82a13.31,13.31,0,0,1-2.45,1.88,2.81,2.81,0,0,1,1-1.76,77.82,77.82,0,0,1,5.75-5.59,18.81,18.81,0,0,0,3.26-2.77l.21-.25c.19-.26.48-.55.21-.86s-.61-.07-.86.12c-.76.56-1.54,1.1-2.26,1.71-1.52,1.3-3,2.64-4.52,4a11.56,11.56,0,0,1-2,1.32,2.64,2.64,0,0,1,.8-1.37c1.14-1.15,2.31-2.27,3.48-3.39a4.25,4.25,0,0,1,1.89-1.21c.27-.06.47-.18.38-.5-.16-.55.17-.8.61-1,.83-.32,1.69-.56,2-1.55.13-.36.6-.31.93-.42a23.83,23.83,0,0,0,6.39-3,1.13,1.13,0,0,0-.81,0,27.4,27.4,0,0,0-7.26,3.16,42.07,42.07,0,0,0-5.81,4.66c-.91.79-.93.77-1.6-.18a1.08,1.08,0,0,1-.21-1,2.6,2.6,0,0,0,2.49-.57c.38-.3.91-.63.68-1.17s-.7.12-1.1,0a1.13,1.13,0,0,1,1-.92,6.5,6.5,0,0,0,2.93-1.29,18,18,0,0,1,3.52-1.64c2.06-.89,4.22-1.51,6.33-2.27a1.8,1.8,0,0,0,1.25-2.53c-1,1.79-2.8,1.81-4.35,2.33-1.8.6-3.51,1.41-5.25,2.15a21.22,21.22,0,0,1-2.91,1c-.13,0-.33.18-.41-.06a.3.3,0,0,1,.23-.37c.92.07,1.33-.73,2-1.14a20.44,20.44,0,0,1,8.33-3.22c.46-.07,1,0,.9-.82,0-.21.13-.35.29-.46a4,4,0,0,1,3-.61c.37.05.49.38.67.65s.53.62.94.47.3-.56.22-.91a1,1,0,0,1,.66-1.15,6.93,6.93,0,0,1,2.2-.52c.17,0,.41-.12.5.12s-.13.33-.26.45a7.4,7.4,0,0,0-2.27,3.4c-.14.43-.53.93.05,1.31a1.78,1.78,0,0,0,2-.43,1,1,0,0,1,1.22-.55,15.17,15.17,0,0,0,6.42-.6.94.94,0,0,1,.45-.2C135.13,145.68,134.55,145.43,134,145.62Z" transform="translate(-16.48 -137.16)"/><path class="cls-2" d="M139,204.05a1,1,0,0,1-.13,1.15c-.35.54-.79,1-1.14,1.57s-1.11,1-1.07,1.89c0,.47-1.51,1.12-2.14,1a37,37,0,0,1-5.49-2,11.83,11.83,0,0,1-5.87-5.59c-.54-.94-1.22-1.77-1.84-2.65-.36-.52-.77-1-1.4-.18a.57.57,0,0,1-1-.09,4,4,0,0,1-.56-2.49c0-.2.06-.49.32-.5s.42.23.49.48.1.64.19,1,.3.61.7.54a.62.62,0,0,0,.5-.66,6.41,6.41,0,0,0-1.42-4.29,1.49,1.49,0,0,0-1-.52c-.52-.05-.74-.34-.66-.82.2-1.22.33-2.47,1.43-3.32.39-.29.48-.69.1-1a.89.89,0,0,0-1.37.06,5.2,5.2,0,0,0-1,2.86c-.14.83.07,1.73-.49,2.48-.16.22-.28.51-.61.39a.58.58,0,0,1-.34-.68,18.09,18.09,0,0,1,1.52-5.9.83.83,0,0,1,.87-.44c1.28.06,1.22,0,1.55-1.13a28,28,0,0,1,2.93-6.67c.22-.37.64-1.14,1.22-.68s0,1-.33,1.38c-1.8,1.79-2.2,4-2.25,6.43a.75.75,0,0,1-.34.6c-.3.26-.69.43-.92.84.89.37,1,1.15,1,1.94a20.59,20.59,0,0,0,1.63,9.12,18.46,18.46,0,0,0,5.46,7.33,12.22,12.22,0,0,0,7.3,2.55.92.92,0,0,0,.92-.57A8.94,8.94,0,0,1,139,204.05Z" transform="translate(-16.48 -137.16)"/><path class="cls-2" d="M164.74,191c.57,3.12,1.4,6.18,2,9.27a18.72,18.72,0,0,1,.61,5.63c0,.12,0,.24-.1.48a6.39,6.39,0,0,1-.9-2.58c-.58-2.33-.59-4.82-1.35-7.08-1.57-4.64-3-9.4-5.91-13.42-1.52-2.06-3.24-4-4.84-6a5,5,0,0,1-1.16-2.14c2.48,1.49,3.71,4.16,6.21,5.48a1.4,1.4,0,0,0-.59-1.33c-.12-.1-.31-.13-.41-.24-.29-.33-.66-.76-.32-1.13s.7,0,1,.27a2.77,2.77,0,0,1,1.08,1.84c0,.4.14.7.69.7s.73.44,1,.79c.7,1,1.37,2.08,2,3.12a2.75,2.75,0,0,0,1.14,1.1c.88.4,1.15,1.33,1.69,2,.41.54.78,1.16,1.73.84-.39,1.32.29,2.31.68,3.38.14.39.59,1,.07,1.2s-.74-.41-.95-.81c-1.55-3.11-3.92-5.62-6-8.33-.59-.77-1.24-1.51-1.88-2.24-.16-.19-.29-.46-.64-.44a1.53,1.53,0,0,0,.34,1c1.16,1.83,2.31,3.66,3.5,5.47A1.83,1.83,0,0,0,165,189c.41,0,.57.42.7.72.3.67.56,1.35.8,2a7.91,7.91,0,0,0,1.92,3.52c-.73.23-1.06.09-1.51-.66a17.64,17.64,0,0,1-1.31-3.14,2.33,2.33,0,0,0-.78-1.37C164.47,190.39,164.56,190.71,164.74,191Z" transform="translate(-16.48 -137.16)"/><path class="cls-2" d="M135.81,219.73l-1.55.86c1.1.12,2,.21,3,.35.39.05,1,.17.9.62s-.66.4-1,.35c-1.38-.18-2.79-.24-3.89-1.35a2.53,2.53,0,0,0-2.17-.38c-.28,0-.3.2-.11.38a2.85,2.85,0,0,0,.38.31c.18.15.45.3.35.58s-.41.23-.64.23a7.82,7.82,0,0,1-3.53-1.1,24.5,24.5,0,0,1-3.53-2.46c-.3-.23-.62-.44-.93-.65s-.6-.38-.9-.2-.09.5-.09.76c0,.67,0,1.35,0,2,0,.45-.27.58-.65.33a5.23,5.23,0,0,1-.8-.68c-.29-.29-.36-.62,0-.91.53-.4.4-.84,0-1.25s-.91-1-1.36-1.5a4.52,4.52,0,0,1-1.18-1.81,7.45,7.45,0,0,0-1.56-2.45,20.34,20.34,0,0,1-2.76-5.18c-.09-.23-.31-.59.09-.79a.66.66,0,0,1,.91.28,2.67,2.67,0,0,1,.37.63c1.27,3.53,3.57,6.45,5.67,9.48.16.23.32.67.73.41s.16-.57,0-.87a11.33,11.33,0,0,0-1.14-2.15,51,51,0,0,1-3.94-7.09,9.17,9.17,0,0,1-.74-2c0-.26-.14-.64.15-.73s.55.18.68.45a30.37,30.37,0,0,1,1.47,3.24,16.42,16.42,0,0,0,1.94,3.83,11.32,11.32,0,0,1,1.43,2.63,3.44,3.44,0,0,0,2.85,1.79,3.1,3.1,0,0,1,1.78.7,8.94,8.94,0,0,0,2.75,1.53c.53.12.91.12,1.05-.5.08-.39.4-.5.74-.52a3.89,3.89,0,0,1,2.11.46c.18.1.46.2.4.44s-.35.19-.56.18a6.73,6.73,0,0,0-.89-.05c-.31,0-.69.07-.72.51s.28.63.66.67c.8.1,1.61.16,2.42.23l1.81.17Z" transform="translate(-16.48 -137.16)"/><path class="cls-2" d="M121.33,222.85c.13.55.59.76,1,1a36.52,36.52,0,0,1,4.43,2.72c.28.23.87.51.53.91s-.9.06-1.19-.29a2.78,2.78,0,0,0-1.9-.94,5.48,5.48,0,0,1-2.69-1.23c-1.83-1.44-3.66-2.87-5.48-4.32a3.52,3.52,0,0,1-1.17-1.57,7.08,7.08,0,0,1,2.07,1.11,15.24,15.24,0,0,0,2.89,2.1c.18.09.4.28.59.08s0-.47-.15-.63a11.27,11.27,0,0,0-1-.92,18.55,18.55,0,0,1-4.16-4c-.28-.43-.85-1-.44-1.41s.84.34,1.26.59a6.5,6.5,0,0,1,1.47,1.49,17.42,17.42,0,0,0,5.19,4.1,22,22,0,0,1,3.17,2c1.56,1.17,3.39,1.17,5.17,1.46a16.68,16.68,0,0,1,6,1.79,4.52,4.52,0,0,1,1.16.87c.37.44.78.7,1.33.34a.94.94,0,0,0,.34-1.34.58.58,0,0,1,0-.23c1.13.35,1.29,1,.54,1.86-.25.29-.43.63-.68.91-.5.57-1.1.55-1.44-.12a1.81,1.81,0,0,0-1.86-1h-2.58c.46-.43,1.14-.34,1.53-.87a4,4,0,0,0-2.06-.51.62.62,0,0,0-.65.6c-.1.63-.55.83-1.11.85a2.65,2.65,0,0,1-2.71-1.27,3.11,3.11,0,0,0-1-.89,17.07,17.07,0,0,0-5.88-3.18A.58.58,0,0,0,121.33,222.85Z" transform="translate(-16.48 -137.16)"/><path class="cls-2" d="M167.55,178.94a10.52,10.52,0,0,1-2.22-2.8c-.2-.52-.76-.73-1.15-1.09-1.65-1.53-3.25-3.12-5-4.57a62.94,62.94,0,0,0-6.16-5c-2.26-1.48-4.55-2.91-6.82-4.37-.17-.11-.38-.21-.43-.46a1.58,1.58,0,0,1,1,.13c2.38,1.1,4.7,2.33,7,3.62.45.25,1.2.46.79,1.32-.08.18.16.27.32.23a1.64,1.64,0,0,0,.75-.27c.77-.77,1.51-.4,2.29,0a30.19,30.19,0,0,1,5.91,4.26c.41.33.8.71,1.19,1.08a.46.46,0,0,0,.5.17c.65-.26.78.18.81.63s0,1.17,0,1.85a79.27,79.27,0,0,1-6-5.28,17.31,17.31,0,0,0-3.24-2.42c-.2-.11-.45-.36-.64-.17s.05.45.18.63a19.57,19.57,0,0,0,4.43,4.33,7.63,7.63,0,0,1,1.29,1.11c1.1,1.23,2.4,2.25,3.57,3.41a.67.67,0,0,0,.18.16C167.77,176,167.58,177.39,167.55,178.94Z" transform="translate(-16.48 -137.16)"/><path class="cls-2" d="M132.42,190.83c-1.34.33-1.73,0-1.71-1.37A5.22,5.22,0,0,1,132,186.3c.39-.5.85-.44,1.24.2a9.6,9.6,0,0,1,1.7,4.13,19.21,19.21,0,0,1-.34,6.28,5.24,5.24,0,0,1-.87,1.61.61.61,0,0,1-.77.28c-.32-.14-.13-.41-.11-.64a3.47,3.47,0,0,0-2.33-2.71.59.59,0,0,0-.65.83,1.87,1.87,0,0,0,1.08,1c.44.22.88.48.88,1.05a.41.41,0,0,1-.3.44,1.37,1.37,0,0,1-1.26-.59,5.82,5.82,0,0,1-1.1-1.41,1.27,1.27,0,0,1,.09-1.56,2.92,2.92,0,0,0,.36-2.11c0-1.15.08-1.26,1.21-1.28A1.48,1.48,0,0,0,132.42,190.83Z" transform="translate(-16.48 -137.16)"/><path class="cls-2" d="M155.5,174c-.1-.35-.56-.34-.66-.67a2.13,2.13,0,0,1,2.28.27c1.42,1,2.6,2.28,3.9,3.41a4.93,4.93,0,0,0,.78.58c.18.12.39.4.62.15s.08-.46,0-.69c-.27-.55-.75-1-.76-1.68,0-.26-.1-.6.2-.73s.48.2.62.41.38.66.56,1a5.14,5.14,0,0,0,1.73,2,8.94,8.94,0,0,1,2.08,2.47,18.17,18.17,0,0,1,2,3.28,1.43,1.43,0,0,1-1-.55,21.51,21.51,0,0,1-2.75-3.2,11.13,11.13,0,0,0-1.59-1.7c-.2-.2-.52-.41-.8-.18s-.06.51,0,.76a7.65,7.65,0,0,0,1.71,2.65,24.24,24.24,0,0,1,2.2,3c.12.16.32.4.12.59s-.47,0-.61-.18a24.53,24.53,0,0,1-2.18-2.27,49,49,0,0,0-4.88-5.77c-1-1-2.13-1.83-3.19-2.74A.44.44,0,0,0,155.5,174Z" transform="translate(-16.48 -137.16)"/><path class="cls-2" d="M139.1,221.45c-.09-.88-.6-1.2-1.36-1.49s-.65-1.06-.57-1.73a1.09,1.09,0,0,1,1.13-1,5.82,5.82,0,0,0,4.32-2.26,2.53,2.53,0,0,0,.54-1.24c.13-1,.58-1.29,1.58-.93a18.81,18.81,0,0,0,2.34.91,12,12,0,0,1,2.09-7.12l.25.07c-.25,1-.52,2.09-.76,3.14a45,45,0,0,1-1.29,5.36c-.15.41-.18,1.22-1,.51-.25-.22-.55,0-.75.26a1.1,1.1,0,0,1-1.1.56,3.08,3.08,0,0,0-2.51.88c-.34.27-.65.57-1,.81a1,1,0,0,1-1.49-.18c-.24-.34-.52-.52-.83-.09s-.42.59.09.92A2.18,2.18,0,0,1,139.1,221.45Z" transform="translate(-16.48 -137.16)"/><path class="cls-4" d="M130,141.48a8.42,8.42,0,0,1,3.13-.51c3.6-.19,7.21-.34,10.81-.19.33,0,.65.08,1,.12.51.07.69.3.36.76s0,.85.45,1a20.26,20.26,0,0,0,4.22.79c.79.06,1.06.54,1.27,1.15s-.06.73-.56.73a2.89,2.89,0,0,1-1.38-.41,12.15,12.15,0,0,0-5.32-1.59,1.5,1.5,0,0,1-1.47-.82c-.24-.5-.78-.48-1.23-.4a6.27,6.27,0,0,1-3.18-.23,8.85,8.85,0,0,0-2.91-.17c-1.33,0-2.66,0-4,0A2.44,2.44,0,0,1,130,141.48Z" transform="translate(-16.48 -137.16)"/><path class="cls-4" d="M125.73,160.63a9.63,9.63,0,0,1-3.37,2.16,6.66,6.66,0,0,0-1.22.62c-3.71,2.55-7.08,5.41-9,9.62-1.3,2.79-2.91,5.42-4.16,8.22a1,1,0,0,1-.48.65,15.42,15.42,0,0,1,1.4-5.16,4.53,4.53,0,0,1,1.56-2.11c.2-.13.26-.47.37-.71a19.77,19.77,0,0,1,4-6.7,34.43,34.43,0,0,1,4.6-3.44,40.58,40.58,0,0,1,5.22-2.94A1.64,1.64,0,0,1,125.73,160.63Z" transform="translate(-16.48 -137.16)"/><path class="cls-4" d="M164,168.14c-4.12-3.08-8.46-5.6-12.47-8.71a1.74,1.74,0,0,1,1.48.24,37.58,37.58,0,0,1,3.62,2.16,35.28,35.28,0,0,0,5,2.76c.26.12.62.43.85,0s-.09-.6-.33-.83-.33-.28-.49-.42-.61-.37-.42-.69a1.15,1.15,0,0,1,1-.43.55.55,0,0,1,.64.5,24.74,24.74,0,0,0,1.23,4.86A2.83,2.83,0,0,1,164,168.14Z" transform="translate(-16.48 -137.16)"/><path class="cls-4" d="M118,141.45c1.79.34,3.4-.22,5-.54a17.73,17.73,0,0,0,3.55-1.15,2.63,2.63,0,0,0,1.13-.77.74.74,0,0,1,1-.3c.35.19.76.44.77.88s-.45.58-.8.7c-2.44.89-4.89,1.71-7.38,2.46-1.79.53-3.55,1.14-5.33,1.71a4.4,4.4,0,0,1-.63.13c-.14,0-.29,0-.35-.13s.09-.24.19-.32a9.35,9.35,0,0,1,2-.93C118.12,142.69,118.22,142.51,118,141.45Z" transform="translate(-16.48 -137.16)"/><path class="cls-4" d="M112.37,178.74a4.67,4.67,0,0,1,2.41-3.17.59.59,0,0,1,.47,0c.84.46,1.3,0,1.7-.68a16.67,16.67,0,0,1,1-1.48c.24-.3.52-.75,1-.45s.11.77,0,1.14a1.22,1.22,0,0,1-.24.32,15.94,15.94,0,0,0-4.2,8.75,11,11,0,0,1-.41,1.57c-.06.19-.1.48-.38.43s-.14-.31-.17-.48a9.19,9.19,0,0,1,1.1-5.72c.31-.6.59-1.22.85-1.84.1-.26.27-.6-.11-.79s-.56.07-.77.29a7.36,7.36,0,0,0-1,1.5q-.25.47-.54.9c-.11.16-.25.34-.46.29S112.39,179,112.37,178.74Z" transform="translate(-16.48 -137.16)"/><path class="cls-4" d="M153.63,222.45a.53.53,0,0,1-.14.61c-1.24,1.25-2.27,2.69-4,3.47-1.86.86-3.6,2-5.41,2.93a2.71,2.71,0,0,1-1.92.5.7.7,0,0,0-.63.31,3,3,0,0,1-.39.41c-.38.27-.94.63-1.21.24s.36-.6.67-.81c1.79-1.21,3.92-1.78,5.71-3a19.47,19.47,0,0,0,4-3A6.1,6.1,0,0,1,153.63,222.45Z" transform="translate(-16.48 -137.16)"/><path class="cls-4" d="M140.54,137.37c.63.11,1.58,1.42,1.45,1.92-.05.21-.21.29-.4.35a4.88,4.88,0,0,1-1.37.15c-2.67.05-5.35.06-8,.3-.22,0-.43,0-.65.09-1.23.24-1.89-.5-1.53-1.72.15-.54.58-.52,1-.47,1.66.23,3.31.51,5,.71a10.92,10.92,0,0,0,4,0C140.94,138.43,141,138.37,140.54,137.37Z" transform="translate(-16.48 -137.16)"/><path class="cls-4" d="M156.72,205.26a41.15,41.15,0,0,1-.63,7.26c-.12.74-.17,1.5-.27,2.25a3,3,0,0,1-.22.77c-.11.26-.3.48-.63.39s-.33-.35-.31-.6a5.09,5.09,0,0,1,.14-.87,31,31,0,0,0,.81-6.43c0-.44,0-1.19-.31-1.22s-.6.67-.67,1.13c-.13.75-.17,1.51-.27,2.26,0,.28,0,.68-.41.68s-.36-.39-.38-.65a7,7,0,0,1,.64-3.86c.13-.27.28-.56.6-.63.76-.17.94-.72,1-1.38.05-.47,0-1.24.49-1.22s.28.79.36,1.23A8.69,8.69,0,0,1,156.72,205.26Z" transform="translate(-16.48 -137.16)"/><path class="cls-4" d="M113.37,186a9,9,0,0,1,.61,3.44,45.69,45.69,0,0,0,1.17,9.47c.25,1,.59,2,.87,2.95.11.4.36.9-.28,1.07s-.86-.07-1-.7c-.27-1.24-.33-2.54-.7-3.74-1.08-3.52-1.05-7.12-1-10.74A3.88,3.88,0,0,1,113.37,186Z" transform="translate(-16.48 -137.16)"/><path class="cls-4" d="M149.3,213.63a6.55,6.55,0,0,1-.73,4.17,9.73,9.73,0,0,1-3.16,3.72c-.35.26-.73.55-1-.18-.13-.4-.48-.21-.75-.09-.47.22-.92.45-1.39.66-.15.06-.35.09-.45-.06s0-.31.1-.45a12.33,12.33,0,0,1,1.53-1.45,4.85,4.85,0,0,0,1.77-2.55c.11-.53.53-.52,1-.47,1.64.17,1.68.13,2.29-1.43A7.36,7.36,0,0,1,149.3,213.63Z" transform="translate(-16.48 -137.16)"/><path class="cls-4" d="M131.67,151.15a10.5,10.5,0,0,0-3.54.5,1.59,1.59,0,0,0-1.29,1.2c-.16.69-.78,1-1.39,1.25a11.46,11.46,0,0,1-3.06.77c-.64.09-.83.4-.74,1a1.1,1.1,0,0,1-.05.63.73.73,0,0,1-1,.25c-.39-.17-.25-.47-.14-.75a4.53,4.53,0,0,1,4.46-2.58.67.67,0,0,0,.79-.39,5.9,5.9,0,0,0,.34-.82c.46-1.41.46-1.42,1.9-1.5a42.92,42.92,0,0,1,5.19-.33,11.11,11.11,0,0,1,1.52.21c.23,0,.49.19.47.49s-.35.27-.57.28C133.56,151.38,132.58,151,131.67,151.15Z" transform="translate(-16.48 -137.16)"/><path class="cls-4" d="M110.13,185.79a3.6,3.6,0,0,0-1.33-2.5c.24-.28.59-.17.89-.22,1-.17,1.23-.49,1.24-1.47a5.43,5.43,0,0,0,0-.57.54.54,0,0,1,.64-.63c.48,0,.54.4.44.78-.2.75-.44,1.5-.67,2.25-.07.23-.15.46-.21.69-.37,1.41-.3,1.49,1.1,1.17.35-.07.62-.07.39.34-1.13,2-1,4.1-.7,6.24a4.82,4.82,0,0,1,0,.86c-1.51-2-1.15-4.31-1.46-6.41C110.27,186.16,110.24,186,110.13,185.79Z" transform="translate(-16.48 -137.16)"/><path class="cls-4" d="M125.37,188.17a19.36,19.36,0,0,0,.17,4.15,7.3,7.3,0,0,0,.89,2.16c.14.25.42.55.17.8s-.72.18-1.09.09-.43-.35-.3-.69a.44.44,0,0,0-.11-.53,2.3,2.3,0,0,1-.82-2c-.18-2.38-.07-4.76,0-7.14v-.08c.08-.43.09-1,.6-1s.4.58.45.91A20.52,20.52,0,0,1,125.37,188.17Z" transform="translate(-16.48 -137.16)"/><path class="cls-4" d="M119,217.72a.83.83,0,0,1-.78-.4,62.7,62.7,0,0,1-6.61-9.08,5.52,5.52,0,0,1-.43-1c-.1-.26-.29-.59.09-.77s.55.1.74.33a7.22,7.22,0,0,1,1,1.64,16.58,16.58,0,0,0,3,4.77,17.81,17.81,0,0,1,2.78,4A3.11,3.11,0,0,1,119,217.72Z" transform="translate(-16.48 -137.16)"/><path class="cls-4" d="M117.44,201.8a8,8,0,0,1,1.37,2.25c.43.84.79,1.71,1.18,2.57a14.47,14.47,0,0,0,3.4,5.15c.19.16.5.42.31.66s-.55.07-.81-.09a5.59,5.59,0,0,1-1.81-1.68c-1.24-1.78-2.45-3.57-2.69-5.82a2.46,2.46,0,0,0-.46-.93A3.35,3.35,0,0,1,117.44,201.8Z" transform="translate(-16.48 -137.16)"/><path class="cls-5" d="M152.86,226.57a1,1,0,0,1-.81,1c-1.77.46-3.16,1.6-4.7,2.48-.86.5-1.73,1-2.61,1.46-.24.13-.56.37-.78,0s0-.61.3-.82a7.76,7.76,0,0,1,1.88-1.11,14.5,14.5,0,0,0,5.05-3.28,3.35,3.35,0,0,1,.49-.43.71.71,0,0,1,.82-.12C152.73,225.89,152.85,226.15,152.86,226.57Z" transform="translate(-16.48 -137.16)"/><path class="cls-4" d="M116.54,223.13a6.05,6.05,0,0,1,2.49,1.26,33.22,33.22,0,0,0,5.41,3.21,6.34,6.34,0,0,1,.81.54c.18.14.38.33.2.62s-.4.24-.64.2a1.16,1.16,0,0,1-.78-.4,1.56,1.56,0,0,0-1.85-.61c-.35.09-.66.18-.6-.45,0-.47-.5-.66-.9-.82a10.74,10.74,0,0,1-3.67-2.62A1.23,1.23,0,0,1,116.54,223.13Z" transform="translate(-16.48 -137.16)"/><path class="cls-5" d="M153.76,213.71a9.55,9.55,0,0,1-1.37,4.35c-.73,1-.61,1.49.38,2.34a.53.53,0,0,1,.22.63c-.15.41-.54.52-.86.69s-.41-.11-.49-.29c-.51-1.2-.86-2.42-.09-3.64a4.14,4.14,0,0,0,.67-2.3,5.69,5.69,0,0,1,.79-2.73c.11-.23.23-.58.55-.49s.16.43.19.65A6.48,6.48,0,0,1,153.76,213.71Z" transform="translate(-16.48 -137.16)"/><path class="cls-4" d="M140,222.7a11.61,11.61,0,0,1-3.71,1.51,7.45,7.45,0,0,1-2.48.35,1.18,1.18,0,0,1-1-.46c-.31-.45-.32-.84.31-.95A28.15,28.15,0,0,1,140,222.7Z" transform="translate(-16.48 -137.16)"/><path class="cls-6" d="M112.42,200.78a21.13,21.13,0,0,1,1.66,3.34c.11.36.21.73-.26.87s-.71-.15-.85-.55a2.44,2.44,0,0,1-.09-.47c0-.33-.09-.74-.51-.67a.68.68,0,0,0-.55.92c.16.5.15.91-.39,1.15-.78.34-1.07-.35-1.25-.78a3.25,3.25,0,0,1-.17-1.76c0-.15,0-.36.25-.36s.22.12.33.19,0,0,0,.06c.27.23.36.82.77.71s.41-.66.53-1S112.23,201.42,112.42,200.78Z" transform="translate(-16.48 -137.16)"/><path class="cls-6" d="M148.45,159.8c.31.1.62.17.91.29a44.62,44.62,0,0,1,6,3.07,8.49,8.49,0,0,1,.9.68.35.35,0,0,1,.1.5.36.36,0,0,1-.42.16,2.76,2.76,0,0,1-.77-.23,43.93,43.93,0,0,1-6.59-4.1,1.55,1.55,0,0,1-.21-.23Z" transform="translate(-16.48 -137.16)"/><path class="cls-4" d="M142.77,204.52a10,10,0,0,1,.89-3.7c.15-.32.34-.66.79-.51s.36.53.31.83c-.09.67-.21,1.34-.36,2a3.92,3.92,0,0,0-.05,1.77,1,1,0,0,1-.21.84.79.79,0,0,1-.82.41c-.36-.07-.42-.4-.48-.68A6.16,6.16,0,0,1,142.77,204.52Z" transform="translate(-16.48 -137.16)"/><path class="cls-6" d="M112,194.2c.23,1.6.47,3.19.66,4.8,0,.47,0,1.15-.51,1.21s-.69-.64-.75-1.09A9.76,9.76,0,0,1,112,194.2Z" transform="translate(-16.48 -137.16)"/><path class="cls-7" d="M109.11,206.09c0,.37,0,.73-.25.8s-.34-.28-.45-.49a9.43,9.43,0,0,1-1.1-3.54,4.33,4.33,0,0,1,0-.72.51.51,0,0,1,.38-.48c.25,0,.37.16.46.37a9.16,9.16,0,0,1,.66,2.24C109,204.91,109,205.55,109.11,206.09Z" transform="translate(-16.48 -137.16)"/><path class="cls-7" d="M119.73,139.5a24,24,0,0,1,5.28-1.23,1.81,1.81,0,0,1,.4,0c.31.05.76,0,.84.34s-.38.52-.71.6a19.3,19.3,0,0,1-4.67.48C120.48,139.64,120.06,139.92,119.73,139.5Z" transform="translate(-16.48 -137.16)"/><path class="cls-8" d="M127.86,222.14a5.81,5.81,0,0,1,3.34,1.31c.16.14.39.32.3.53s-.4.24-.64.19a13.45,13.45,0,0,1-3.28-1.09c-.26-.14-.7-.25-.56-.65S127.56,222.16,127.86,222.14Z" transform="translate(-16.48 -137.16)"/><path class="cls-9" d="M105.22,182.93a16.48,16.48,0,0,1-.49,6.56C104.39,187.26,104.13,185,105.22,182.93Z" transform="translate(-16.48 -137.16)"/><path class="cls-9" d="M140.33,220.43a10.79,10.79,0,0,1,3.42-2.94c.36-.2.49,0,.49.36a1.07,1.07,0,0,1-.1.39A5.18,5.18,0,0,1,140.33,220.43Z" transform="translate(-16.48 -137.16)"/><path class="cls-9" d="M125.59,215c-.31.14-.58.09-.65-.24a1.66,1.66,0,0,1,.07-1.26c.12-.2.34,0,.5.07a30.38,30.38,0,0,1,3.09,2.58c.11.09.25.26.17.42s-.34.07-.5,0a2.76,2.76,0,0,1-1.37-.94A1.67,1.67,0,0,0,125.59,215Z" transform="translate(-16.48 -137.16)"/><path class="cls-8" d="M117,184.53a8.05,8.05,0,0,1,1.31-3.16.53.53,0,0,1,.7-.23c.31.16.16.42.08.64a10.58,10.58,0,0,1-1.43,3c-.11.15-.26.34-.46.28S117,184.75,117,184.53Z" transform="translate(-16.48 -137.16)"/><path class="cls-10" d="M161.32,223.84a1.11,1.11,0,0,1,.18-.77,10.54,10.54,0,0,1,2.84-2.73c.19-.13.46-.29.65,0s-.09.37-.21.47c-1.22,1-2.1,2.39-3.42,3.3A.18.18,0,0,1,161.32,223.84Z" transform="translate(-16.48 -137.16)"/><path class="cls-10" d="M134.64,233.1c-.32,0-.59,0-.66-.35a.61.61,0,0,1,.26-.71,5.52,5.52,0,0,1,2.55-.91c.16,0,.34,0,.42.13a.33.33,0,0,1-.08.28A5,5,0,0,1,134.64,233.1Z" transform="translate(-16.48 -137.16)"/><path class="cls-9" d="M151.75,180.51c0-.34,0-.61.27-.71a.71.71,0,0,1,.8.22,3.63,3.63,0,0,1,.87,1.71c.09.56-.27.81-.79.59A2.11,2.11,0,0,1,151.75,180.51Z" transform="translate(-16.48 -137.16)"/><path class="cls-9" d="M109.36,199.47a35.4,35.4,0,0,1-.62-4.5c0-.22-.12-.56.2-.62s.41.22.51.44a5.5,5.5,0,0,1,.28,3.18A3.28,3.28,0,0,1,109.36,199.47Z" transform="translate(-16.48 -137.16)"/><path class="cls-11" d="M103.29,191.68a1.2,1.2,0,0,1,.69-.79c.74-.42,1.3-.13,1.35.72a3.27,3.27,0,0,1-.43,1.78c-.1.19-.21.38-.49.31s-.37-.28-.39-.53a1.49,1.49,0,0,1,.15-.94c.15-.21.35-.41.19-.63s-.43-.07-.66,0A2.18,2.18,0,0,1,103.29,191.68Z" transform="translate(-16.48 -137.16)"/><path class="cls-12" d="M133.72,161.93a15,15,0,0,1,2.76.14,4.22,4.22,0,0,1,.77.22c.24.1.25.32.21.55s-.25.26-.43.22c-1.59-.4-3.24-.47-4.79-1C132.72,161.87,133.24,162.11,133.72,161.93Z" transform="translate(-16.48 -137.16)"/><path class="cls-13" d="M128,189.54s0,.06,0,.08c-.14.63-.19,1.3-.84,1.65-.18.09-.3-.06-.39-.19a3,3,0,0,1-.1-2.26.5.5,0,0,1,.64-.18A1,1,0,0,1,128,189.54Z" transform="translate(-16.48 -137.16)"/><path class="cls-14" d="M106.86,195.24a4.81,4.81,0,0,1-.09-3.26c0-.15.14-.32.34-.31s.31.19.4.37A3.25,3.25,0,0,1,106.86,195.24Z" transform="translate(-16.48 -137.16)"/><path class="cls-10" d="M107.21,178.41a2.86,2.86,0,0,1-1.38,2.2c-.16.1-.35.25-.52.11s-.09-.41,0-.6a7.92,7.92,0,0,1,1.21-1.91c.14-.18.27-.49.55-.36S107.12,178.24,107.21,178.41Z" transform="translate(-16.48 -137.16)"/><path class="cls-10" d="M128.67,230.24a5.84,5.84,0,0,1-2.08-.72c-.18-.12-.38-.29-.31-.52s.33-.25.55-.25a3.4,3.4,0,0,1,2,.65.58.58,0,0,1,.23.65C129,230.31,128.83,230.26,128.67,230.24Z" transform="translate(-16.48 -137.16)"/><path class="cls-10" d="M108.91,189.76a7.68,7.68,0,0,1-.78-3.34c0-.15,0-.34.19-.41s.37.08.44.25A4.51,4.51,0,0,1,108.91,189.76Z" transform="translate(-16.48 -137.16)"/><path class="cls-14" d="M134.8,230.91a8.72,8.72,0,0,1-4.57-.32C131,230,133.52,230.22,134.8,230.91Z" transform="translate(-16.48 -137.16)"/><path class="cls-8" d="M101.94,182.57a1.52,1.52,0,0,1,.73-1.24c.42-.28,1-.48,1.33-.11s-.24.7-.5,1a4.62,4.62,0,0,1-.86.73C102.2,183.21,101.92,183.1,101.94,182.57Z" transform="translate(-16.48 -137.16)"/><path class="cls-11" d="M137.57,224.89c.47.11,1,.09,1.27.6a.4.4,0,0,1-.17.5,1.33,1.33,0,0,1-1.37.17,1.56,1.56,0,0,1-.37-.17c-.22-.15-.49-.3-.45-.61s.36-.36.62-.43A3.55,3.55,0,0,1,137.57,224.89Z" transform="translate(-16.48 -137.16)"/><path class="cls-15" d="M107.5,199.6a8.41,8.41,0,0,1-.92-2.67c0-.21-.11-.47.13-.58s.46.1.6.28A2.83,2.83,0,0,1,107.5,199.6Z" transform="translate(-16.48 -137.16)"/><path class="cls-11" d="M106.86,187.1a6.06,6.06,0,0,1-.16-3.21c0-.2.09-.48.36-.46s.28.29.3.5A5.18,5.18,0,0,1,106.86,187.1Z" transform="translate(-16.48 -137.16)"/><path class="cls-11" d="M161.32,223.84l0,.26a5.37,5.37,0,0,1-3.18,2,3.32,3.32,0,0,1,2.2-1.8A1.9,1.9,0,0,0,161.32,223.84Z" transform="translate(-16.48 -137.16)"/><path class="cls-12" d="M103.17,180.05c-.18,0-.22-.17-.16-.43a3.27,3.27,0,0,1,1.75-1.68c.3-.05.41.05.39.34A3.08,3.08,0,0,1,103.17,180.05Z" transform="translate(-16.48 -137.16)"/><path class="cls-10" d="M154.45,230.79c-.07.45-.16.92-.77.93a.85.85,0,0,1-.92-.76c0-.6.48-.79,1-.87S154.4,230.34,154.45,230.79Z" transform="translate(-16.48 -137.16)"/><path class="cls-10" d="M117.61,200.13a13.4,13.4,0,0,1-1.46-2.46c-.12-.19-.25-.62.12-.77s.51.15.62.39A4.89,4.89,0,0,1,117.61,200.13Z" transform="translate(-16.48 -137.16)"/><path class="cls-8" d="M131.31,160.92a4.69,4.69,0,0,1,2.81-.64c.23,0,.54,0,.56.31s-.25.29-.46.36A5.43,5.43,0,0,1,131.31,160.92Z" transform="translate(-16.48 -137.16)"/><path class="cls-16" d="M111,145.92a3.53,3.53,0,0,1,3.17-1.06A3.36,3.36,0,0,1,111,145.92Z" transform="translate(-16.48 -137.16)"/><path class="cls-10" d="M123.79,220.34c0-.25.28-.22.48-.16a3.91,3.91,0,0,1,1.42.76c.32.3.33.63-.12.82S123.73,221,123.79,220.34Z" transform="translate(-16.48 -137.16)"/><path class="cls-13" d="M126.6,162c0,.62-1.41,1.93-1.89,1.83-.26-.05-.29-.2-.19-.41a3.12,3.12,0,0,1,1.61-1.53C126.32,161.84,126.56,161.85,126.6,162Z" transform="translate(-16.48 -137.16)"/><path class="cls-11" d="M146.57,202.11c0,.56.07,1.27-.57,1.35-.29,0-.63-.62-.59-1.12s.22-1.05.79-1.06S146.44,201.85,146.57,202.11Z" transform="translate(-16.48 -137.16)"/><path class="cls-14" d="M149.63,158.7a4.12,4.12,0,0,1-1.57-.47c-.18-.11-.39-.25-.3-.51s.28-.23.48-.23a2.75,2.75,0,0,1,1.66.52c.17.12.38.27.27.52S149.85,158.69,149.63,158.7Z" transform="translate(-16.48 -137.16)"/><path class="cls-17" d="M120.35,203.72H120a7,7,0,0,1-.58-3.17,2.37,2.37,0,0,1,.79,2.43A.61.61,0,0,0,120.35,203.72Z" transform="translate(-16.48 -137.16)"/><path class="cls-16" d="M157.54,229.18c-.11.59-.58.77-1.09.87-.32.06-.65,0-.6-.43a1.08,1.08,0,0,1,1-1C157.22,228.58,157.45,228.8,157.54,229.18Z" transform="translate(-16.48 -137.16)"/><path class="cls-15" d="M117.86,194.39c0-.31,0-.77.46-.69a1.11,1.11,0,0,1,.87,1,.57.57,0,0,1-.64.67C118,195.36,117.91,194.85,117.86,194.39Z" transform="translate(-16.48 -137.16)"/><path class="cls-10" d="M103,186.18c0,.43-.09.93-.69,1a.56.56,0,0,1-.64-.59c0-.44.52-1.14.9-1.11S102.93,185.84,103,186.18Z" transform="translate(-16.48 -137.16)"/><path class="cls-13" d="M148.47,230.4c.33,0,.66,0,.71.43s-.66.94-1.11.91a.56.56,0,0,1-.59-.63C147.53,230.5,148,230.47,148.47,230.4Z" transform="translate(-16.48 -137.16)"/><path class="cls-11" d="M112.87,217.05c0-.34.07-.79.46-.73a1.07,1.07,0,0,1,.88,1,.57.57,0,0,1-.6.69C113,218,113,217.48,112.87,217.05Z" transform="translate(-16.48 -137.16)"/><path class="cls-10" d="M129.63,231.36a1.36,1.36,0,0,1,.83,1.06.57.57,0,0,1-.6.69c-.57,0-.7-.53-.72-1S129.17,231.45,129.63,231.36Z" transform="translate(-16.48 -137.16)"/><path class="cls-16" d="M165.5,214.82a2.13,2.13,0,0,1-1.38,1.86c-.17.08-.37.14-.51-.06s0-.31.09-.44A4.79,4.79,0,0,1,165.5,214.82Z" transform="translate(-16.48 -137.16)"/><path class="cls-18" d="M115.63,194.94c.07-.3,0-.8.45-.77a.87.87,0,0,1,.78,1,.66.66,0,0,1-.75.68C115.57,195.77,115.65,195.32,115.63,194.94Z" transform="translate(-16.48 -137.16)"/><path class="cls-11" d="M127,192a4.07,4.07,0,0,1,1.07,1.92c.06.2.13.46-.1.59s-.45-.1-.59-.27A3.06,3.06,0,0,1,127,192Z" transform="translate(-16.48 -137.16)"/><path class="cls-16" d="M135.91,218.35c0,.26-.16.37-.42.36-.6,0-.91-.49-1.28-.85-.09-.09-.06-.29.14-.38a.89.89,0,0,1,.84,0A1.35,1.35,0,0,1,135.91,218.35Z" transform="translate(-16.48 -137.16)"/><path class="cls-19" d="M154.15,218.51c-.28,0-.36-.2-.37-.43,0-.44.61-1.17,1-1.16a.37.37,0,0,1,.37.43C155.14,217.78,154.52,218.51,154.15,218.51Z" transform="translate(-16.48 -137.16)"/><path class="cls-20" d="M166.41,210.14c.1-.31,0-.85.39-.87s.66.44.71.85a.64.64,0,0,1-.57.76C166.43,210.93,166.49,210.47,166.41,210.14Z" transform="translate(-16.48 -137.16)"/><path class="cls-16" d="M110,181.41c0,.36.06.89-.36.9s-.65-.44-.68-.87a.64.64,0,0,1,.56-.77C110,180.64,109.93,181.1,110,181.41Z" transform="translate(-16.48 -137.16)"/><path class="cls-20" d="M137.66,233.82c-.26-.12-.82.07-.75-.44s.57-.57,1-.55.68.16.63.55S138,233.79,137.66,233.82Z" transform="translate(-16.48 -137.16)"/><path class="cls-21" d="M113.8,214.39c-.45,0-1.07-1-.89-1.46,0,0,0-.05,0-.07.13-.18.29-.1.42,0a1.6,1.6,0,0,1,.82,1.22C114.19,214.31,114,214.37,113.8,214.39Z" transform="translate(-16.48 -137.16)"/><path class="cls-22" d="M110.89,213.38c0-.16-.07-.41.17-.47s.28.17.37.33a5,5,0,0,1,.43,1.56c0,.14.07.35-.13.41s-.26-.15-.34-.28A3.71,3.71,0,0,1,110.89,213.38Z" transform="translate(-16.48 -137.16)"/><path class="cls-15" d="M133.9,167.34c0,.42-.25.66-.66.65a.62.62,0,0,1-.67-.66.67.67,0,0,1,1.33,0Z" transform="translate(-16.48 -137.16)"/><path class="cls-14" d="M110,208.87c-.07.31.09.83-.37.84s-.64-.44-.67-.86.14-.72.56-.74S109.93,208.53,110,208.87Z" transform="translate(-16.48 -137.16)"/><path class="cls-16" d="M137.49,229.73a.67.67,0,1,1-1.33,0,.62.62,0,0,1,.69-.63A.61.61,0,0,1,137.49,229.73Z" transform="translate(-16.48 -137.16)"/><path class="cls-20" d="M167.16,197.46c0-.22-.07-.43.22-.45s1.05.83,1.05,1.21-.16.44-.39.39C167.41,198.49,167.26,198,167.16,197.46Z" transform="translate(-16.48 -137.16)"/><path class="cls-22" d="M112.21,210.52c-.06.26,0,.64-.31.61-.46,0-.7-.45-.81-.88-.07-.27.14-.38.38-.39A.71.71,0,0,1,112.21,210.52Z" transform="translate(-16.48 -137.16)"/><path class="cls-23" d="M115.62,188c-.06.23-.05.6-.31.56a1.06,1.06,0,0,1-.8-.91c-.05-.28.18-.37.41-.36A.67.67,0,0,1,115.62,188Z" transform="translate(-16.48 -137.16)"/><path class="cls-24" d="M111.73,160.31c.52,0,.21-.28.16-.46s-.22-.48,0-.65a.59.59,0,0,1,.68,0c.28.23.1.48,0,.71a1.21,1.21,0,0,1-.48.52A.41.41,0,0,1,111.73,160.31Z" transform="translate(-16.48 -137.16)"/><path class="cls-23" d="M110,193c.18-.25-.2-.8.38-.79.37,0,.35.42.33.69s0,.82-.44.83S110.15,193.26,110,193Z" transform="translate(-16.48 -137.16)"/><path class="cls-25" d="M166,216.1c.59.6.36,1.1,0,1.71A1.82,1.82,0,0,1,166,216.1Z" transform="translate(-16.48 -137.16)"/><path class="cls-26" d="M104.71,198.61a2.59,2.59,0,0,1-.1-1.38c0-.09.13-.16.19-.23s.2.12.21.21A1.4,1.4,0,0,1,104.71,198.61Z" transform="translate(-16.48 -137.16)"/><path class="cls-27" d="M157,152a2.84,2.84,0,0,1-1.39.1c-.11,0-.23,0-.21-.18a.33.33,0,0,1,.18-.22A1.41,1.41,0,0,1,157,152Z" transform="translate(-16.48 -137.16)"/><path class="cls-28" d="M158.44,210.89v-1.81A1.39,1.39,0,0,1,158.44,210.89Z" transform="translate(-16.48 -137.16)"/><path class="cls-29" d="M152.7,203.08c-.59-.41-.21-1-.28-1.51C153,202,152.62,202.57,152.7,203.08Z" transform="translate(-16.48 -137.16)"/><path class="cls-16" d="M152.42,205.9c.08-.45-.32-1,.28-1.36C152.66,205,152.93,205.53,152.42,205.9Z" transform="translate(-16.48 -137.16)"/><path class="cls-30" d="M133.72,161.93a5.68,5.68,0,0,1-1.48.14c-.19.06-.39.26-.6-.14Z" transform="translate(-16.48 -137.16)"/><path class="cls-31" d="M134,145.62a4.23,4.23,0,0,1,2,0l-.82.17C134.78,145.51,134.36,145.76,134,145.62Z" transform="translate(-16.48 -137.16)"/><path class="cls-32" d="M140.21,209.1l0-1C140.7,208.43,140.69,208.77,140.21,209.1Z" transform="translate(-16.48 -137.16)"/><path class="cls-33" d="M164.74,191c-.41-.34-.59-.67,0-1Z" transform="translate(-16.48 -137.16)"/><path class="cls-34" d="M119.73,139.5c.35.25.77,0,1.14.15a5,5,0,0,1-1.71.13A.8.8,0,0,1,119.73,139.5Z" transform="translate(-16.48 -137.16)"/><path class="cls-35" d="M158.73,220.14l0,.81C158.17,220.7,158.25,220.43,158.73,220.14Z" transform="translate(-16.48 -137.16)"/><path class="cls-36" d="M104.11,171.06c0-.31-.22-.71.28-.86C104.33,170.5,104.64,170.91,104.11,171.06Z" transform="translate(-16.48 -137.16)"/><path class="cls-37" d="M162.5,197.35a3.27,3.27,0,0,1,.13,1.41.91.91,0,0,1-.27-.59C162.58,197.93,162.4,197.61,162.5,197.35Z" transform="translate(-16.48 -137.16)"/><path class="cls-38" d="M152.43,193.15v-.66C152.86,192.71,152.85,192.93,152.43,193.15Z" transform="translate(-16.48 -137.16)"/><path class="cls-39" d="M140.22,194.76c.39.1.29.41.28.68a.17.17,0,0,1-.28,0Z" transform="translate(-16.48 -137.16)"/><path class="cls-40" d="M110.41,178.82l0,.64c-.17,0-.32,0-.34-.25A.31.31,0,0,1,110.41,178.82Z" transform="translate(-16.48 -137.16)"/><path class="cls-40" d="M140.22,195.41l.28,0v.65C140.11,196,140.21,195.68,140.22,195.41Z" transform="translate(-16.48 -137.16)"/><path class="cls-41" d="M141,162.87c-.16.07-.38,0-.49.16-.2,0-.38,0-.42-.25A1.08,1.08,0,0,1,141,162.87Z" transform="translate(-16.48 -137.16)"/><path class="cls-42" d="M140.5,203.22c0,.27.13.58-.28.68v-.64C140.3,203.14,140.39,203.14,140.5,203.22Z" transform="translate(-16.48 -137.16)"/><path class="cls-43" d="M140.17,183.44a1.21,1.21,0,0,1-.3-.74l.65.52A.35.35,0,0,0,140.17,183.44Z" transform="translate(-16.48 -137.16)"/><path class="cls-44" d="M122.14,165l-.16-.15c.15-.22.39-.17.64-.28C122.57,164.93,122.38,165,122.14,165Z" transform="translate(-16.48 -137.16)"/><path class="cls-45" d="M140.5,203.22l-.28,0c0-.24,0-.47.28-.52Z" transform="translate(-16.48 -137.16)"/><path class="cls-46" d="M110.13,185.79c.33.06.31.29.27.53C110.07,186.27,110.08,186,110.13,185.79Z" transform="translate(-16.48 -137.16)"/><path class="cls-47" d="M129,155c.37.12,1.08-.2,1.17.27s-.65.54-1,.74a3,3,0,0,1-1.57.27.57.57,0,0,1-.58-.48c-.06-.35.21-.46.46-.58A4.64,4.64,0,0,1,129,155Z" transform="translate(-16.48 -137.16)"/><path class="cls-43" d="M148.08,181.09c-.54.61-.94,1.08-1.36,1.54s-.78.32-1-.13a57.81,57.81,0,0,0-3.48-5.75c-.13-.23-.44-.55-.13-.79s.5.11.71.27a11.23,11.23,0,0,1,2.8,2.91,2,2,0,0,1,.44,1.81c-.14.44.16.53.5.48S147.42,181.24,148.08,181.09Z" transform="translate(-16.48 -137.16)"/><path class="cls-48" d="M164.45,207.81c-.57,1-.26,2.2-.36,3.39-.54-.27-.61-.73-.78-1.1-.33-.76-.63-1.54-.93-2.32-.15-.38-.09-.61.39-.41a.76.76,0,0,0,1.06-.27c.26-.45,0-.77-.32-1.06a2.29,2.29,0,0,1-.53-2.4.73.73,0,0,1,.73-.63c.17,0,.45,0,.34.31-.4,1.07.28,2,.41,3A1.85,1.85,0,0,1,164.45,207.81Z" transform="translate(-16.48 -137.16)"/><path class="cls-49" d="M144.84,173.2a5.39,5.39,0,0,1-3.27-2,.36.36,0,0,1-.07-.3c.06-.16.22-.11.35-.09a1.25,1.25,0,0,1,.82.47,1.78,1.78,0,0,0,2,.6,1.9,1.9,0,0,1,1.69.29.59.59,0,0,1,.25.38c0,.24-.18.23-.33.26Z" transform="translate(-16.48 -137.16)"/><path class="cls-50" d="M164.45,207.81V206.3A.94.94,0,0,1,164.45,207.81Z" transform="translate(-16.48 -137.16)"/><path class="cls-48" d="M121.58,168.63c-.06,0-.27,0-.28-.34a.86.86,0,0,1,.7-1,7.08,7.08,0,0,0,2.29-1c1-.55,1.9-1.13,2.88-1.66.43-.24,1.07-.8,1.34-.41s-.56.59-.89.86a35.65,35.65,0,0,1-4.21,2.89A3.82,3.82,0,0,1,121.58,168.63Z" transform="translate(-16.48 -137.16)"/><path class="cls-51" d="M134.28,158.12a2.13,2.13,0,0,1,2.18,0A3,3,0,0,1,134.28,158.12Z" transform="translate(-16.48 -137.16)"/><path class="cls-1" d="M128.39,148.27a4.8,4.8,0,0,1,2.41-.56,64,64,0,0,1,11.91-.09A21.85,21.85,0,0,1,148,148.9c.35.13.77.27.81.71a.89.89,0,0,1-.55.84,1,1,0,0,1-1.12-.17,9,9,0,0,0-3.94-1.05,114.68,114.68,0,0,0-12.15-.61A6,6,0,0,1,128.39,148.27Z" transform="translate(-16.48 -137.16)"/><path class="cls-48" d="M121.45,149.77a19.8,19.8,0,0,1-8.14,3.94A17.05,17.05,0,0,1,121.45,149.77Z" transform="translate(-16.48 -137.16)"/><path class="cls-52" d="M118.85,189.7a2.16,2.16,0,0,1,0,2.05A3.06,3.06,0,0,1,118.85,189.7Z" transform="translate(-16.48 -137.16)"/><path class="cls-48" d="M124.54,216.78c1.63.78,3.25,1.55,4.86,2.34a1.94,1.94,0,0,1,.62.52c.31.37,0,.65-.21.91a.44.44,0,0,1-.75-.09,1.51,1.51,0,0,0-1.64-.76,1.12,1.12,0,0,1-.73-.33A6.78,6.78,0,0,1,124.54,216.78Z" transform="translate(-16.48 -137.16)"/><path class="cls-53" d="M129.33,225.62a3.63,3.63,0,0,1,2.42,1.17c.1.1.18.23.08.36s-.29.11-.45,0A4.46,4.46,0,0,1,129.33,225.62Z" transform="translate(-16.48 -137.16)"/><path class="cls-43" d="M133.87,192.73v.08c.09,1.67-.06,1.9-1.27,1.94-1.51.05-2.63-.83-2.62-2.06,0-.53.32-.52.64-.3s.71.58,1.07.87c.8.62,1.29.44,1.44-.57a8.75,8.75,0,0,0,.07-1.62c0-.84-.25-1-1.06-.84s-.87,0-.67-.72a14.67,14.67,0,0,1,.63-1.75c.11-.26.26-.6.61-.55s.39.37.46.62a26.48,26.48,0,0,1,.67,4.25C133.86,192.29,133.86,192.51,133.87,192.73Z" transform="translate(-16.48 -137.16)"/><path class="cls-54" d="M145.54,214.09a2.18,2.18,0,0,1-1.28,1.6c-.34.07-.38-.15-.34-.37a3.26,3.26,0,0,1,.79-1.57.42.42,0,0,1,.51-.13A.52.52,0,0,1,145.54,214.09Z" transform="translate(-16.48 -137.16)"/><path class="cls-55" d="M147.06,218.56c-.35.91-1.24,1.34-1.63,2.24C145.09,219.8,145.82,218.83,147.06,218.56Z" transform="translate(-16.48 -137.16)"/><text class="cls-56" transform="translate(0 111.66)"><tspan xml:space="preserve">         </tspan><tspan class="cls-57" x="60.64" y="0">F</tspan><tspan x="73.84" y="0">acelift By Design</tspan><tspan x="0" y="28.8" xml:space="preserve">    Eleganc</tspan><tspan class="cls-57" x="88.97" y="28.8">e</tspan><tspan x="95.66" y="28.8">.Styl</tspan><tspan class="cls-57" x="139.65" y="28.8">e</tspan><tspan x="146.34" y="28.8">.Character</tspan></text></svg>